# xmcd
#
# Track frame offsets: 
#        150
#        13467
#        27439
#        43545
#        62476
#        74292
#        88084
#        103713
#        115069
#        133453
#        145931
#        156275
#        172651
#        188481
#        199627
#        212605
#
# Disc length: 3076 seconds
#
# Revision: 0
# Processed by: cddbd v1.5.2PL0 Copyright (c) Steve Scherf et al.
# Submitted via: ExactAudioCopy v1.0b3
#
DISCID=e00c0210
DTITLE=VOCES8 - Aces High
DYEAR=2010
DGENRE=jazz
TTITLE0=Goldeneye
TTITLE1=Slap that Bass
TTITLE2=What a difference a day makes
TTITLE3=Good Vibrations
TTITLE4=Dream a little dream of me
TTITLE5=Feeling good
TTITLE6=Anything goes
TTITLE7=From Russia with Love
TTITLE8=Cloudy
TTITLE9=Loosing my mind
TTITLE10=Mack the knife
TTITLE11=Love of my life
TTITLE12=For your eyes only - You only live twice
TTITLE13=Thunderball
TTITLE14=Smooth criminal
TTITLE15=Nobody does it better
EXTD=
EXTT0=
EXTT1=
EXTT2=
EXTT3=
EXTT4=
EXTT5=
EXTT6=
EXTT7=
EXTT8=
EXTT9=
EXTT10=
EXTT11=
EXTT12=
EXTT13=
EXTT14=
EXTT15=
PLAYORDER=
